<svg width="100" height="100" fill="none" xmlns="http://www.w3.org/2000/svg"><path d="M71.787 72.733V64.44a1.6 1.6 0 00-.8-1.385l-20.212-11.67a1.6 1.6 0 010-2.77l20.212-11.67a1.6 1.6 0 00.8-1.385v-8.294a1.6 1.6 0 00-2.399-1.385L30.013 48.614a1.6 1.6 0 000 2.771L69.388 74.12a1.6 1.6 0 002.4-1.386z" fill="#222831"/><path d="M30.013 51.385L69.388 74.12c.193.112.395.164.597.19L32.013 52.386a1.6 1.6 0 010-2.77L71.388 26.88c.1-.058.205-.092.308-.126-.308-.914-1.4-1.398-2.308-.874L30.013 48.614a1.6 1.6 0 000 2.771z" fill="#222831"/><path d="M71.787 72.733V64.44a1.6 1.6 0 00-.8-1.385l-20.212-11.67a1.6 1.6 0 010-2.77l20.212-11.67a1.6 1.6 0 00.8-1.385v-8.294a1.6 1.6 0 00-2.399-1.385L30.013 48.614a1.6 1.6 0 000 2.771L69.388 74.12a1.6 1.6 0 002.4-1.386z" stroke="#222831" stroke-miterlimit="10"/></svg>