<svg width="100" height="100" fill="none" xmlns="http://www.w3.org/2000/svg"><path d="M28.213 27.267v8.294c0 .57.305 1.1.8 1.385l20.212 11.669a1.6 1.6 0 010 2.77l-20.212 11.67a1.6 1.6 0 00-.8 1.385v8.294a1.6 1.6 0 002.399 1.385l39.375-22.733a1.6 1.6 0 000-2.771L30.612 25.88a1.6 1.6 0 00-2.4 1.386z" fill="#222831"/><path d="M69.987 48.615L30.612 25.88a1.56 1.56 0 00-.597-.19l37.972 21.923a1.6 1.6 0 010 2.77L28.612 73.12c-.1.058-.205.092-.308.126.308.914 1.4 1.398 2.308.874l39.375-22.733a1.6 1.6 0 000-2.771z" fill="#222831"/><path d="M28.213 27.267v8.294c0 .57.305 1.1.8 1.385l20.212 11.669a1.6 1.6 0 010 2.77l-20.212 11.67a1.6 1.6 0 00-.8 1.385v8.294a1.6 1.6 0 002.399 1.385l39.375-22.733a1.6 1.6 0 000-2.771L30.612 25.88a1.6 1.6 0 00-2.4 1.386z" stroke="#222831" stroke-miterlimit="10"/></svg>