<svg width="100" height="100" viewBox="0 0 100 100" fill="none" xmlns="http://www.w3.org/2000/svg">
<path d="M71.7871 72.7331L71.7871 64.4391C71.7871 63.8681 71.4821 63.3391 70.9871 63.0541L50.7751 51.3851C49.7091 50.7691 49.7091 49.2301 50.7751 48.6141L70.9871 36.9451C71.4821 36.6591 71.7871 36.1311 71.7871 35.5601L71.7871 27.2661C71.7871 26.0351 70.4541 25.2651 69.3881 25.8811L30.0131 48.6141C28.9471 49.2301 28.9471 50.7691 30.0131 51.3851L69.3881 74.1191C70.4541 74.7341 71.7871 73.9651 71.7871 72.7331Z" fill="#222831"/>
<path d="M30.0133 51.3851L69.3883 74.1191C69.5813 74.2311 69.7833 74.2831 69.9853 74.3091L32.0133 52.3861C30.9473 51.7701 30.9473 50.2311 32.0133 49.6151L71.3883 26.8811C71.4883 26.8231 71.5933 26.7891 71.6963 26.7551C71.3883 25.8411 70.2953 25.3571 69.3883 25.8811L30.0133 48.6141C28.9463 49.2301 28.9463 50.7701 30.0133 51.3851Z" fill="#222831"/>
<path d="M71.7871 72.7331L71.7871 64.4391C71.7871 63.8681 71.4821 63.3391 70.9871 63.0541L50.7751 51.3851C49.7091 50.7691 49.7091 49.2301 50.7751 48.6141L70.9871 36.9451C71.4821 36.6591 71.7871 36.1311 71.7871 35.5601L71.7871 27.2661C71.7871 26.0351 70.4541 25.2651 69.3881 25.8811L30.0131 48.6141C28.9471 49.2301 28.9471 50.7691 30.0131 51.3851L69.3881 74.1191C70.4541 74.7341 71.7871 73.9651 71.7871 72.7331Z" stroke="#222831" stroke-miterlimit="10"/>
</svg>
