<svg width="100" height="100" viewBox="0 0 100 100" fill="none" xmlns="http://www.w3.org/2000/svg">
<path d="M28.2129 27.2669V35.5609C28.2129 36.1319 28.5179 36.6609 29.0129 36.9459L49.2249 48.6149C50.2909 49.2309 50.2909 50.7699 49.2249 51.3859L29.0129 63.0549C28.5179 63.3409 28.2129 63.8689 28.2129 64.4399L28.2129 72.7339C28.2129 73.9649 29.5459 74.7349 30.6119 74.1189L69.9869 51.3859C71.0529 50.7699 71.0529 49.2309 69.9869 48.6149L30.6119 25.8809C29.5459 25.2659 28.2129 26.0349 28.2129 27.2669Z" fill="#222831"/>
<path d="M69.9867 48.6149L30.6117 25.8809C30.4187 25.7689 30.2167 25.7169 30.0147 25.6909L67.9867 47.6139C69.0527 48.2299 69.0527 49.7689 67.9867 50.3849L28.6117 73.1189C28.5117 73.1769 28.4067 73.2109 28.3037 73.2449C28.6117 74.1589 29.7047 74.6429 30.6117 74.1189L69.9867 51.3859C71.0537 50.7699 71.0537 49.2299 69.9867 48.6149Z" fill="#222831"/>
<path d="M28.2129 27.2669V35.5609C28.2129 36.1319 28.5179 36.6609 29.0129 36.9459L49.2249 48.6149C50.2909 49.2309 50.2909 50.7699 49.2249 51.3859L29.0129 63.0549C28.5179 63.3409 28.2129 63.8689 28.2129 64.4399L28.2129 72.7339C28.2129 73.9649 29.5459 74.7349 30.6119 74.1189L69.9869 51.3859C71.0529 50.7699 71.0529 49.2309 69.9869 48.6149L30.6119 25.8809C29.5459 25.2659 28.2129 26.0349 28.2129 27.2669Z" stroke="#222831" stroke-miterlimit="10"/>
</svg>
